<svg width="246" height="480" viewBox="0 0 246 480" fill="none" xmlns="http://www.w3.org/2000/svg">
<rect x="32" y="3" width="308" height="427" rx="10" fill="url(#paint0_linear)"/>
<mask id="mask0" mask-type="alpha" maskUnits="userSpaceOnUse" x="32" y="3" width="308" height="427">
<rect x="32" y="3" width="308" height="427" rx="10" fill="white"/>
</mask>
<g mask="url(#mask0)">
<g opacity="0.404832">
<path opacity="0.16" d="M-543.602 160.151C-400.559 271.909 -193.863 246.371 -81.9351 103.109C29.9928 -40.1519 4.7684 -246.886 -138.275 -358.644C-281.319 -470.402 -488.015 -444.864 -599.943 -301.603C-711.871 -158.341 -686.646 48.3928 -543.602 160.151Z" fill="white"/>
<path opacity="0.16" d="M-152.254 339.305C-52.8265 416.986 90.8868 399.182 168.738 299.537C246.589 199.891 229.098 56.1397 129.67 -21.5419C30.242 -99.2236 -113.471 -81.4187 -191.323 18.2264C-269.174 117.871 -251.682 261.623 -152.254 339.305Z" fill="white"/>
<path opacity="0.16" d="M123.554 406.315C172.28 444.384 242.641 435.744 280.71 387.018C318.779 338.293 310.139 267.932 261.413 229.863C212.688 191.794 142.327 200.433 104.258 249.159C66.189 297.885 74.8282 368.246 123.554 406.315Z" fill="white"/>
</g>
</g>
<defs>
<linearGradient id="paint0_linear" x1="494" y1="216.5" x2="88.8142" y2="-75.7652" gradientUnits="userSpaceOnUse">
<stop stop-color="#CF3107"/>
<stop offset="1" stop-color="#EB6538"/>
</linearGradient>
</defs>
</svg>
