<svg width="372" height="491" viewBox="0 0 372 491" fill="none" xmlns="http://www.w3.org/2000/svg">
<g filter="url(#filter0_d)">
<rect x="32" y="3" width="308" height="427" rx="10" fill="url(#paint0_linear)"/>
</g>
<mask id="mask0" mask-type="alpha" maskUnits="userSpaceOnUse" x="32" y="3" width="308" height="427">
<rect x="32" y="3" width="308" height="427" rx="10" fill="white"/>
</mask>
<g mask="url(#mask0)">
<g opacity="0.404832">
<path opacity="0.16" d="M-197.602 160.151C-54.5586 271.909 152.137 246.371 264.065 103.109C375.993 -40.1519 350.768 -246.886 207.725 -358.644C64.6807 -470.402 -142.015 -444.864 -253.943 -301.603C-365.871 -158.341 -340.646 48.3928 -197.602 160.151Z" fill="white"/>
<path opacity="0.16" d="M193.746 339.305C293.174 416.986 436.887 399.182 514.738 299.537C592.589 199.891 575.098 56.1397 475.67 -21.5419C376.242 -99.2236 232.529 -81.4187 154.677 18.2264C76.8262 117.871 94.3176 261.623 193.746 339.305Z" fill="white"/>
</g>
</g>
<defs>
<filter id="filter0_d" x="0" y="0" width="372" height="491" filterUnits="userSpaceOnUse" color-interpolation-filters="sRGB">
<feFlood flood-opacity="0" result="BackgroundImageFix"/>
<feColorMatrix in="SourceAlpha" type="matrix" values="0 0 0 0 0 0 0 0 0 0 0 0 0 0 0 0 0 0 127 0"/>
<feOffset dy="29"/>
<feGaussianBlur stdDeviation="16"/>
<feColorMatrix type="matrix" values="0 0 0 0 0 0 0 0 0 0 0 0 0 0 0 0 0 0 0.130518 0"/>
<feBlend mode="normal" in2="BackgroundImageFix" result="effect1_dropShadow"/>
<feBlend mode="normal" in="SourceGraphic" in2="effect1_dropShadow" result="shape"/>
</filter>
<linearGradient id="paint0_linear" x1="494" y1="216.5" x2="88.8142" y2="-75.7652" gradientUnits="userSpaceOnUse">
<stop stop-color="#4E1087"/>
<stop offset="1" stop-color="#B11EDD"/>
</linearGradient>
</defs>
</svg>
